<?xml version="1.0" encoding="UTF-8" standalone="no"?>
<!DOCTYPE svg PUBLIC "-//W3C//DTD SVG 1.1//EN" "http://www.w3.org/Graphics/SVG/1.1/DTD/svg11.dtd">
<!--Generated by Intaglio, www.PurgatoryDesign.com-->
<svg version="1.1" viewBox="0,0,612,792" width="612" height="792" xmlns="http://www.w3.org/2000/svg" xmlns:xlink="http://www.w3.org/1999/xlink" xmlns:intaglio="http://purgatorydesign.com/namespaces/intaglio" intaglio:grid="1.8,1.8,1,1,0.5,#9999bf,1,0,0,1" intaglio:guides="0.8,#f0f,1,1" intaglio:ruler="1,5,5,1,1,0,0"><path fill="none" stroke="#000100" d="M68.7331,56.3458 L129.933,56.3458 L129.933,171.546 L68.7331,171.546 L68.7331,56.3458 Z"/><g><path fill="none" stroke="#000100" d="M74.1331,88.3484 L124.533,88.3484 L124.533,138.748 L74.1331,138.748 L74.1331,88.3484 Z"/><path fill="none" stroke="#000100" d="M74.1331,88.3484 L124.533,88.3484"/><path fill="none" stroke="#000100" d="M99.3331,88.3484 L99.3331,138.748"/><path fill="none" stroke="#000100" d="M74.1331,88.3504 C74.1331,88.3504,97.6666,72.1343,124.533,88.3504"/><path fill="none" stroke="#000100" d="M74.1331,138.748 C74.1331,138.748,99.3331,156.748,124.533,138.748"/><path fill="none" stroke="#000100" d="M106.533,113.548 C106.533,117.525,103.31,120.748,99.3331,120.748 C95.3566,120.748,92.1331,117.525,92.1331,113.548 C92.1331,109.572,95.3566,106.348,99.3331,106.348 C103.31,106.348,106.533,109.572,106.533,113.548 Z"/><path fill="none" stroke="#000100" d="M92.1331,113.548 L106.533,113.548"/></g><path fill="none" stroke="#000100" d="M120.24,63 C120.24,64.3918,119.112,65.52,117.72,65.52 C116.328,65.52,115.2,64.3918,115.2,63 C115.2,61.6082,116.328,60.48,117.72,60.48 C119.112,60.48,120.24,61.6082,120.24,63 Z"/><path fill="none" stroke="#000100" d="M75.6,165.96 C75.6,164.966,74.7941,164.16,73.8,164.16 C72.8059,164.16,72,164.966,72,165.96 C72,166.954,72.8059,167.76,73.8,167.76 C74.7941,167.76,75.6,166.954,75.6,165.96 Z"/><g><g><g><path fill="none" stroke="#000100" d="M54,374.44 L115.2,374.44 L115.2,424.84 L54,424.84 L54,374.44 Z"/><path fill="none" stroke="#000100" d="M54,373.798 C54,373.798,84.6,341.397,115.2,373.798"/><path fill="none" stroke="#000100" d="M54,424.84 C54,424.84,84.6,457.241,115.2,424.84"/></g><g><path fill="none" stroke="#000100" d="M139.68,374.44 L200.88,374.44 L200.88,424.84 L139.68,424.84 L139.68,374.44 Z"/><path fill="none" stroke="#000100" d="M139.68,373.798 C139.68,373.798,170.28,341.397,200.88,373.798"/><path fill="none" stroke="#000100" d="M139.68,424.84 C139.68,424.84,170.28,457.241,200.88,424.84"/></g><g><path fill="none" stroke="#000100" d="M225.36,374.44 L286.56,374.44 L286.56,424.84 L225.36,424.84 L225.36,374.44 Z"/><path fill="none" stroke="#000100" d="M225.36,373.798 C225.36,373.798,255.96,341.397,286.56,373.798"/><path fill="none" stroke="#000100" d="M225.36,424.84 C225.36,424.84,255.96,457.241,286.56,424.84"/></g><g><path fill="none" stroke="#000100" d="M311.04,374.44 L372.24,374.44 L372.24,424.84 L311.04,424.84 L311.04,374.44 Z"/><path fill="none" stroke="#000100" d="M311.04,373.798 C311.04,373.798,341.64,341.397,372.24,373.798"/><path fill="none" stroke="#000100" d="M311.04,424.84 C311.04,424.84,341.64,457.241,372.24,424.84"/></g><g><path fill="none" stroke="#000100" d="M396.72,374.44 L457.92,374.44 L457.92,424.84 L396.72,424.84 L396.72,374.44 Z"/><path fill="none" stroke="#000100" d="M396.72,373.798 C396.72,373.798,427.32,341.397,457.92,373.798"/><path fill="none" stroke="#000100" d="M396.72,424.84 C396.72,424.84,427.32,457.241,457.92,424.84"/></g><g><path fill="none" stroke="#000100" d="M482.4,374.44 L543.6,374.44 L543.6,424.84 L482.4,424.84 L482.4,374.44 Z"/><path fill="none" stroke="#000100" d="M482.4,373.798 C482.4,373.798,513,341.397,543.6,373.798"/><path fill="none" stroke="#000100" d="M482.4,424.84 C482.4,424.84,513,457.241,543.6,424.84"/></g></g><g><g><path fill="none" stroke="#000100" d="M54,225.64 L115.2,225.64 L115.2,276.04 L54,276.04 L54,225.64 Z"/><path fill="none" stroke="#000100" d="M54,224.998 C54,224.998,84.6,192.597,115.2,224.998"/><path fill="none" stroke="#000100" d="M54,276.04 C54,276.04,84.6,308.441,115.2,276.04"/></g><g><path fill="none" stroke="#000100" d="M139.68,225.64 L200.88,225.64 L200.88,276.04 L139.68,276.04 L139.68,225.64 Z"/><path fill="none" stroke="#000100" d="M139.68,224.998 C139.68,224.998,170.28,192.597,200.88,224.998"/><path fill="none" stroke="#000100" d="M139.68,276.04 C139.68,276.04,170.28,308.441,200.88,276.04"/></g><g><path fill="none" stroke="#000100" d="M225.36,225.64 L286.56,225.64 L286.56,276.04 L225.36,276.04 L225.36,225.64 Z"/><path fill="none" stroke="#000100" d="M225.36,224.998 C225.36,224.998,255.96,192.597,286.56,224.998"/><path fill="none" stroke="#000100" d="M225.36,276.04 C225.36,276.04,255.96,308.441,286.56,276.04"/></g><g><path fill="none" stroke="#000100" d="M311.04,225.64 L372.24,225.64 L372.24,276.04 L311.04,276.04 L311.04,225.64 Z"/><path fill="none" stroke="#000100" d="M311.04,224.998 C311.04,224.998,341.64,192.597,372.24,224.998"/><path fill="none" stroke="#000100" d="M311.04,276.04 C311.04,276.04,341.64,308.441,372.24,276.04"/></g><g><path fill="none" stroke="#000100" d="M396.72,225.64 L457.92,225.64 L457.92,276.04 L396.72,276.04 L396.72,225.64 Z"/><path fill="none" stroke="#000100" d="M396.72,224.998 C396.72,224.998,427.32,192.597,457.92,224.998"/><path fill="none" stroke="#000100" d="M396.72,276.04 C396.72,276.04,427.32,308.441,457.92,276.04"/></g><g><path fill="none" stroke="#000100" d="M482.4,225.64 L543.6,225.64 L543.6,276.04 L482.4,276.04 L482.4,225.64 Z"/><path fill="none" stroke="#000100" d="M482.4,224.998 C482.4,224.998,513,192.597,543.6,224.998"/><path fill="none" stroke="#000100" d="M482.4,276.04 C482.4,276.04,513,308.441,543.6,276.04"/></g></g><g><g><path fill="none" stroke="#000100" d="M54,523.24 L115.2,523.24 L115.2,573.64 L54,573.64 L54,523.24 Z"/><path fill="none" stroke="#000100" d="M54,522.598 C54,522.598,84.6,490.197,115.2,522.598"/><path fill="none" stroke="#000100" d="M54,573.64 C54,573.64,84.6,606.041,115.2,573.64"/></g><g><path fill="none" stroke="#000100" d="M139.68,523.24 L200.88,523.24 L200.88,573.64 L139.68,573.64 L139.68,523.24 Z"/><path fill="none" stroke="#000100" d="M139.68,522.598 C139.68,522.598,170.28,490.197,200.88,522.598"/><path fill="none" stroke="#000100" d="M139.68,573.64 C139.68,573.64,170.28,606.041,200.88,573.64"/></g><g><path fill="none" stroke="#000100" d="M225.36,523.24 L286.56,523.24 L286.56,573.64 L225.36,573.64 L225.36,523.24 Z"/><path fill="none" stroke="#000100" d="M225.36,522.598 C225.36,522.598,255.96,490.197,286.56,522.598"/><path fill="none" stroke="#000100" d="M225.36,573.64 C225.36,573.64,255.96,606.041,286.56,573.64"/></g><g><path fill="none" stroke="#000100" d="M311.04,523.24 L372.24,523.24 L372.24,573.64 L311.04,573.64 L311.04,523.24 Z"/><path fill="none" stroke="#000100" d="M311.04,522.598 C311.04,522.598,341.64,490.197,372.24,522.598"/><path fill="none" stroke="#000100" d="M311.04,573.64 C311.04,573.64,341.64,606.041,372.24,573.64"/></g><g><path fill="none" stroke="#000100" d="M396.72,523.24 L457.92,523.24 L457.92,573.64 L396.72,573.64 L396.72,523.24 Z"/><path fill="none" stroke="#000100" d="M396.72,522.598 C396.72,522.598,427.32,490.197,457.92,522.598"/><path fill="none" stroke="#000100" d="M396.72,573.64 C396.72,573.64,427.32,606.041,457.92,573.64"/></g><g><path fill="none" stroke="#000100" d="M482.4,523.24 L543.6,523.24 L543.6,573.64 L482.4,573.64 L482.4,523.24 Z"/><path fill="none" stroke="#000100" d="M482.4,522.598 C482.4,522.598,513,490.197,543.6,522.598"/><path fill="none" stroke="#000100" d="M482.4,573.64 C482.4,573.64,513,606.041,543.6,573.64"/></g></g><g><g><path fill="none" stroke="#000100" d="M54,672.04 L115.2,672.04 L115.2,722.44 L54,722.44 L54,672.04 Z"/><path fill="none" stroke="#000100" d="M54,671.398 C54,671.398,84.6,638.997,115.2,671.398"/><path fill="none" stroke="#000100" d="M54,722.44 C54,722.44,84.6,754.841,115.2,722.44"/></g><g><path fill="none" stroke="#000100" d="M139.68,672.04 L200.88,672.04 L200.88,722.44 L139.68,722.44 L139.68,672.04 Z"/><path fill="none" stroke="#000100" d="M139.68,671.398 C139.68,671.398,170.28,638.997,200.88,671.398"/><path fill="none" stroke="#000100" d="M139.68,722.44 C139.68,722.44,170.28,754.841,200.88,722.44"/></g><g><path fill="none" stroke="#000100" d="M225.36,672.04 L286.56,672.04 L286.56,722.44 L225.36,722.44 L225.36,672.04 Z"/><path fill="none" stroke="#000100" d="M225.36,671.398 C225.36,671.398,255.96,638.997,286.56,671.398"/><path fill="none" stroke="#000100" d="M225.36,722.44 C225.36,722.44,255.96,754.841,286.56,722.44"/></g><g><path fill="none" stroke="#000100" d="M311.04,672.04 L372.24,672.04 L372.24,722.44 L311.04,722.44 L311.04,672.04 Z"/><path fill="none" stroke="#000100" d="M311.04,671.398 C311.04,671.398,341.64,638.997,372.24,671.398"/><path fill="none" stroke="#000100" d="M311.04,722.44 C311.04,722.44,341.64,754.841,372.24,722.44"/></g><g><path fill="none" stroke="#000100" d="M396.72,672.04 L457.92,672.04 L457.92,722.44 L396.72,722.44 L396.72,672.04 Z"/><path fill="none" stroke="#000100" d="M396.72,671.398 C396.72,671.398,427.32,638.997,457.92,671.398"/><path fill="none" stroke="#000100" d="M396.72,722.44 C396.72,722.44,427.32,754.841,457.92,722.44"/></g><g><path fill="none" stroke="#000100" d="M482.4,672.04 L543.6,672.04 L543.6,722.44 L482.4,722.44 L482.4,672.04 Z"/><path fill="none" stroke="#000100" d="M482.4,671.398 C482.4,671.398,513,638.997,543.6,671.398"/><path fill="none" stroke="#000100" d="M482.4,722.44 C482.4,722.44,513,754.841,543.6,722.44"/></g></g></g></svg>
