<?xml version="1.0" encoding="UTF-8" standalone="no"?>
<!DOCTYPE svg PUBLIC "-//W3C//DTD SVG 1.1//EN" "http://www.w3.org/Graphics/SVG/1.1/DTD/svg11.dtd">
<!--Generated by Intaglio, www.PurgatoryDesign.com-->
<svg version="1.1" viewBox="0,0,612,792" width="612" height="792" xmlns="http://www.w3.org/2000/svg" xmlns:xlink="http://www.w3.org/1999/xlink" xmlns:intaglio="http://purgatorydesign.com/namespaces/intaglio" intaglio:grid="7.2,7.2,1,1,0.5,#9999bf,1,0,0,1" intaglio:guides="0.8,#f0f,1,1" intaglio:ruler="1,5,5,1,1,0,0"><g><path fill="none" stroke="#000100" stroke-width="18" d="M512.064,408.024 C512.064,527.318,415.358,624.024,296.064,624.024 C176.77,624.024,80.064,527.318,80.064,408.024 C80.064,288.73,176.77,192.024,296.064,192.024 C415.358,192.024,512.064,288.73,512.064,408.024 Z"/><path fill="#fffffe" stroke="#000100" d="M299.664,408.024 C299.664,410.012,298.052,411.624,296.064,411.624 C294.076,411.624,292.464,410.012,292.464,408.024 C292.464,406.036,294.076,404.424,296.064,404.424 C298.052,404.424,299.664,406.036,299.664,408.024 Z"/><path fill="none" stroke="#000100" d="M476.064,408.024 C476.064,507.435,395.475,588.024,296.064,588.024 C196.653,588.024,116.064,507.435,116.064,408.024 C116.064,308.613,196.653,228.024,296.064,228.024 C395.475,228.024,476.064,308.613,476.064,408.024 Z"/><path fill="none" stroke="#000100" d="M548.064,408.024 C548.064,547.2,435.24,660.024,296.064,660.024 C156.888,660.024,44.064,547.2,44.064,408.024 C44.064,268.848,156.888,156.024,296.064,156.024 C435.24,156.024,548.064,268.848,548.064,408.024 Z"/></g></svg>
