<?xml version="1.0" encoding="UTF-8" standalone="no"?>
<!DOCTYPE svg PUBLIC "-//W3C//DTD SVG 1.1//EN" "http://www.w3.org/Graphics/SVG/1.1/DTD/svg11.dtd">
<!--Generated by Intaglio, www.PurgatoryDesign.com-->
<svg version="1.1" viewBox="0,0,612,792" width="612" height="792" xmlns="http://www.w3.org/2000/svg" xmlns:xlink="http://www.w3.org/1999/xlink" xmlns:intaglio="http://purgatorydesign.com/namespaces/intaglio" intaglio:grid="7.2,7.2,1,1,0.5,#9999bf,1,0,0,1" intaglio:guides="0.8,#f0f,1,1" intaglio:ruler="1,5,5,1,1,0,0"><path fill="none" stroke="#000100" stroke-width="36" d="M540.864,422.899 C540.864,542.193,444.158,638.899,324.864,638.899 C205.57,638.899,108.864,542.193,108.864,422.899 C108.864,303.606,205.57,206.899,324.864,206.899 C444.158,206.899,540.864,303.606,540.864,422.899 Z"/><path fill="#fffffe" stroke="#000100" d="M328.464,422.899 C328.464,424.887,326.852,426.499,324.864,426.499 C322.876,426.499,321.264,424.887,321.264,422.899 C321.264,420.911,322.876,419.299,324.864,419.299 C326.852,419.299,328.464,420.911,328.464,422.899 Z"/><path fill="none" stroke="#000100" d="M504.864,422.899 C504.864,522.31,424.275,602.899,324.864,602.899 C225.453,602.899,144.864,522.31,144.864,422.899 C144.864,323.488,225.453,242.899,324.864,242.899 C424.275,242.899,504.864,323.488,504.864,422.899 Z"/><path fill="none" stroke="#000100" d="M576.864,422.899 C576.864,562.075,464.04,674.899,324.864,674.899 C185.688,674.899,72.864,562.075,72.864,422.899 C72.864,283.723,185.688,170.899,324.864,170.899 C464.04,170.899,576.864,283.723,576.864,422.899 Z"/><path fill="none" stroke="#000100" stroke-dasharray="18,8" d="M468.864,422.899 C468.864,502.428,404.393,566.899,324.864,566.899 C245.335,566.899,180.864,502.428,180.864,422.899 C180.864,343.37,245.335,278.899,324.864,278.899 C404.393,278.899,468.864,343.37,468.864,422.899 Z"/></svg>
