<?xml version="1.0" encoding="UTF-8" standalone="no"?>
<!DOCTYPE svg PUBLIC "-//W3C//DTD SVG 1.1//EN" "http://www.w3.org/Graphics/SVG/1.1/DTD/svg11.dtd">
<!--Generated by Intaglio, www.PurgatoryDesign.com-->
<svg version="1.1" viewBox="0,0,612,792" width="612" height="792" xmlns="http://www.w3.org/2000/svg" xmlns:xlink="http://www.w3.org/1999/xlink" xmlns:intaglio="http://purgatorydesign.com/namespaces/intaglio" intaglio:grid="7.2,7.2,1,1,0.5,#9999bf,1,0,0,1" intaglio:guides="0.8,#f0f,1,1" intaglio:ruler="1,5,5,1,1,0,0"><g><path fill="none" stroke="#000" stroke-width="3" stroke-dasharray="0.397389,0.397389" d="M484.013,216 C484.013,274.549,396.255,322.013,288,322.013 C179.745,322.013,91.987,274.549,91.987,216 C91.987,157.451,179.745,109.987,288,109.987 C396.255,109.987,484.013,157.451,484.013,216 Z"/><path fill="none" stroke="#000" stroke-width="3" d="M288,72 C288,360,288,360,288,360"/><path fill="none" stroke="#000" stroke-width="3" d="M504,215.924 L72,216.089"/><path fill="none" stroke="#000" stroke-width="3" d="M218.323,147.042 C218.323,146.645,218.645,146.323,219.042,146.323 L356.958,146.323 C357.355,146.323,357.677,146.645,357.677,147.042 L357.677,284.957 C357.677,285.355,357.355,285.677,356.958,285.677 L219.042,285.677 C218.645,285.677,218.323,285.355,218.323,284.957 Z"/><path fill="none" stroke="#000" stroke-width="3" d="M240.374,153.974 L335.626,153.974 L335.626,278.026 L240.374,278.026 L240.374,153.974 Z"/><path fill="none" stroke="#000" stroke-width="3" d="M72,72 L504,72 L504,360 L72,360 L72,72 Z"/><path fill="none" stroke="#000" stroke-width="3" d="M139.25,215.031 C139.794,167.317,178.916,129.078,226.63,129.622 L351.326,131.044 C399.04,131.588,437.279,170.709,436.735,218.423 L436.75,217.133 C436.206,264.847,397.085,303.086,349.37,302.542 L224.674,301.12 C176.96,300.576,138.721,261.455,139.265,213.741 Z"/><path fill="none" stroke="#000" stroke-width="3" d="M195.855,216.337 C195.855,224.29,189.408,230.737,181.455,230.737 C173.502,230.737,167.055,224.29,167.055,216.337 C167.055,208.384,173.502,201.937,181.455,201.937 C189.408,201.937,195.855,208.384,195.855,216.337 Z"/><path fill="none" stroke="#000" stroke-width="3" d="M410.692,216.693 C410.692,224.646,404.244,231.093,396.292,231.093 C388.339,231.093,381.892,224.646,381.892,216.693 C381.892,208.74,388.339,202.293,396.292,202.293 C404.244,202.293,410.692,208.74,410.692,216.693 Z"/><path fill="none" stroke="#000" stroke-width="3" d="M395.884,271.414 C395.884,276.385,391.854,280.414,386.884,280.414 C381.913,280.414,377.884,276.385,377.884,271.414 C377.884,266.443,381.913,262.414,386.884,262.414 C391.854,262.414,395.884,266.443,395.884,271.414 Z"/></g><g><path fill="none" stroke="#000" stroke-width="3" stroke-dasharray="0.397389,0.397389" d="M484.013,576 C484.013,634.549,396.255,682.013,288,682.013 C179.745,682.013,91.987,634.549,91.987,576 C91.987,517.451,179.745,469.987,288,469.987 C396.255,469.987,484.013,517.451,484.013,576 Z"/><path fill="none" stroke="#000" stroke-width="3" d="M288,432 C288,720,288,720,288,720"/><path fill="none" stroke="#000" stroke-width="3" d="M504,575.924 L72,576.089"/><path fill="none" stroke="#000" stroke-width="3" d="M218.323,507.042 C218.323,506.645,218.645,506.323,219.042,506.323 L356.958,506.323 C357.355,506.323,357.677,506.645,357.677,507.042 L357.677,644.957 C357.677,645.355,357.355,645.677,356.958,645.677 L219.042,645.677 C218.645,645.677,218.323,645.355,218.323,644.957 Z"/><path fill="none" stroke="#000" stroke-width="3" d="M240.374,513.974 L335.626,513.974 L335.626,638.026 L240.374,638.026 L240.374,513.974 Z"/><path fill="none" stroke="#000" stroke-width="3" d="M72,432 L504,432 L504,720 L72,720 L72,432 Z"/><path fill="none" stroke="#000" stroke-width="3" d="M139.25,575.031 C139.794,527.317,178.916,489.078,226.63,489.622 L351.326,491.044 C399.04,491.588,437.279,530.709,436.735,578.423 L436.75,577.133 C436.206,624.847,397.085,663.086,349.37,662.542 L224.674,661.12 C176.96,660.576,138.721,621.455,139.265,573.741 Z"/><path fill="none" stroke="#000" stroke-width="3" d="M195.855,576.337 C195.855,584.29,189.408,590.737,181.455,590.737 C173.502,590.737,167.055,584.29,167.055,576.337 C167.055,568.384,173.502,561.937,181.455,561.937 C189.408,561.937,195.855,568.384,195.855,576.337 Z"/><path fill="none" stroke="#000" stroke-width="3" d="M410.692,576.693 C410.692,584.646,404.244,591.093,396.292,591.093 C388.339,591.093,381.892,584.646,381.892,576.693 C381.892,568.74,388.339,562.293,396.292,562.293 C404.244,562.293,410.692,568.74,410.692,576.693 Z"/><path fill="none" stroke="#000" stroke-width="3" d="M395.884,631.414 C395.884,636.385,391.854,640.414,386.884,640.414 C381.913,640.414,377.884,636.385,377.884,631.414 C377.884,626.443,381.913,622.414,386.884,622.414 C391.854,622.414,395.884,626.443,395.884,631.414 Z"/></g></svg>
