<?xml version="1.0" encoding="UTF-8" standalone="no"?>
<!DOCTYPE svg PUBLIC "-//W3C//DTD SVG 1.1//EN" "http://www.w3.org/Graphics/SVG/1.1/DTD/svg11.dtd">
<!--Generated by Intaglio, www.PurgatoryDesign.com-->
<svg version="1.1" viewBox="0,0,612,792" width="612" height="792" xmlns="http://www.w3.org/2000/svg" xmlns:xlink="http://www.w3.org/1999/xlink" xmlns:intaglio="http://purgatorydesign.com/namespaces/intaglio" intaglio:grid="7.2,7.2,1,1,0.5,#9999bf,1,0,0,1" intaglio:guides="0.8,#f0f,1,1" intaglio:ruler="1,5,5,1,1,0,0"><path fill="none" stroke="#000" stroke-width="3.6" d="M13.3844,34.8323 L135.784,34.8323 L135.784,157.232 L13.3844,157.232 L13.3844,34.8323 Z"/><path fill="none" stroke="#000" stroke-width="3.6" d="M54.7844,68.2827 L94.3844,68.2827 L94.3844,269.883 L54.7844,269.883 L54.7844,68.2827 Z"/><path fill="none" stroke="#000" stroke-width="3.6" d="M79.9844,86.3189 C79.9844,89.3013,77.5667,91.7189,74.5844,91.7189 C71.602,91.7189,69.1844,89.3013,69.1844,86.3189 C69.1844,83.3366,71.602,80.9189,74.5844,80.9189 C77.5667,80.9189,79.9844,83.3366,79.9844,86.3189 Z"/><path fill="none" stroke="#000" stroke-width="3.6" d="M79.9844,107.899 C79.9844,110.881,77.5667,113.299,74.5844,113.299 C71.602,113.299,69.1844,110.881,69.1844,107.899 C69.1844,104.916,71.602,102.499,74.5844,102.499 C77.5667,102.499,79.9844,104.916,79.9844,107.899 Z"/><path fill="none" stroke="#000" stroke-width="3.6" d="M79.9844,143.835 C79.9844,146.817,77.5667,149.235,74.5844,149.235 C71.602,149.235,69.1844,146.817,69.1844,143.835 C69.1844,140.852,71.602,138.435,74.5844,138.435 C77.5667,138.435,79.9844,140.852,79.9844,143.835 Z"/><path fill="none" stroke="#000" stroke-width="0.8" d="M74.5844,35.7733 L74.5844,158.173"/><path fill="none" stroke="#000" stroke-width="0.8" d="M13.3844,86.1733 L135.784,86.1733"/><path fill="none" stroke="#000" stroke-width="0.8" d="M13.3844,107.773 L135.784,107.773"/><path fill="none" stroke="#000" stroke-width="0.8" d="M13.3844,143.773 L135.784,143.773 L135.784,143.773"/><image xlink:href="7.png" width="158" height="299" transform="matrix(0.8,0,0,0.8,161.6,36)"/><image xlink:href="7.png" width="158" height="299" transform="matrix(0.8,0,0,0.8,305.6,36)"/><image xlink:href="7.png" width="158" height="299" transform="matrix(0.8,0,0,0.8,17.6,324)"/><image xlink:href="7.png" width="158" height="299" transform="matrix(0.8,0,0,0.8,161.6,324)"/><image xlink:href="7.png" width="158" height="299" transform="matrix(0.8,0,0,0.8,305.6,324)"/><image xlink:href="7.png" width="158" height="299" transform="matrix(0.8,0,0,0.8,449.6,36)"/><image xlink:href="7.png" width="158" height="299" transform="matrix(0.8,0,0,0.8,449.6,324)"/></svg>
