<?xml version="1.0" encoding="UTF-8" standalone="no"?>
<!DOCTYPE svg PUBLIC "-//W3C//DTD SVG 1.1//EN" "http://www.w3.org/Graphics/SVG/1.1/DTD/svg11.dtd">
<!--Generated by Intaglio, www.PurgatoryDesign.com-->
<svg version="1.1" viewBox="0,0,612,792" width="612" height="792" xmlns="http://www.w3.org/2000/svg" xmlns:xlink="http://www.w3.org/1999/xlink" xmlns:intaglio="http://purgatorydesign.com/namespaces/intaglio" intaglio:grid="7.2,7.2,1,1,0.5,#9999bf,1,0,0,1" intaglio:guides="0.8,#f0f,1,1" intaglio:ruler="1,5,5,1,1,0,0"><g><g><path fill="none" stroke="#000100" d="M446.4,403.2 C446.4,506.588,362.588,590.4,259.2,590.4 C155.812,590.4,72,506.588,72,403.2 C72,299.812,155.812,216,259.2,216 C362.588,216,446.4,299.812,446.4,403.2 Z"/><path fill="#fffffe" stroke="#000100" d="M262.8,403.2 C262.8,405.188,261.188,406.8,259.2,406.8 C257.212,406.8,255.6,405.188,255.6,403.2 C255.6,401.212,257.212,399.6,259.2,399.6 C261.188,399.6,262.8,401.212,262.8,403.2 Z"/></g><path fill="none" stroke="#000100" d="M72,403.2 L446.4,403.2"/><path fill="none" stroke="#000100" d="M259.2,216 L259.2,590.4"/></g></svg>
